<?xml version="1.0" encoding="UTF-8"?>
<!DOCTYPE svg PUBLIC "-//W3C//DTD SVG 1.1//EN" "http://www.w3.org/Graphics/SVG/1.1/DTD/svg11.dtd">
<!-- Creator: CorelDRAW 2021.5 -->
<svg xmlns="http://www.w3.org/2000/svg" xml:space="preserve" width="683.1mm" height="337.836mm" version="1.1" style="shape-rendering:geometricPrecision; text-rendering:geometricPrecision; image-rendering:optimizeQuality; fill-rule:evenodd; clip-rule:evenodd"
viewBox="0 0 3526.76 1744.21"
 xmlns:xlink="http://www.w3.org/1999/xlink"
 xmlns:xodm="http://www.corel.com/coreldraw/odm/2003">
 <defs>
  <style type="text/css">
   <![CDATA[
    .fil3 {fill:white}
    .fil0 {fill:#191919}
    .fil2 {fill:#999966}
    .fil1 {fill:white;fill-rule:nonzero}
   ]]>
  </style>
 </defs>
 <g id="Слой_x0020_1">
  <metadata id="CorelCorpID_0Corel-Layer"/>
  <rect class="fil0" y="-0" width="3526.76" height="1744.21" rx="153.19" ry="147.9"/>
  <polygon class="fil1" points="2335.86,473.22 2246,473.22 2246,952.87 2148.85,952.87 2148.85,473.22 2080.85,473.22 2080.85,385.79 2148.85,385.79 2148.85,156.28 2246,156.28 2246,385.79 2335.86,385.79 "/>
  <path class="fil1" d="M1628.36 951.12l-132.87 5.11c-79.17,7.8 -77.75,13.11 -169.69,13.11 -79.14,0 -144.1,-28.74 -195.3,-86.01 -51.01,-57.28 -76.51,-130.54 -76.51,-219.79 0,-87.44 25.7,-158.67 76.91,-213.72 51.21,-55.26 116.98,-82.78 197.33,-82.78 45.54,0 85.62,8.91 120.42,26.72 34.81,17.6 62.33,43.11 82.57,76.3l0 -86.01 97.14 0 0 567.08zm-299.95 -491.8c-240.66,0 -229.9,416.51 -4.29,416.51 227.04,0 248.23,-416.51 4.29,-416.51z"/>
  <path class="fil2" d="M1570.72 750.97c-16.04,138.21 -153.77,210.71 -300.39,213.25 340.17,99.3 532.08,-46.51 689.96,-144.54 134.9,-80.52 374.29,-104.11 512.46,46.42 -114.69,-201.12 -362.96,-212.36 -517.3,-159.26 -165.51,56.95 -301.9,229.29 -449.8,246.65 73.54,-50.8 76.11,-155.6 65.08,-202.51z"/>
  <path class="fil1" d="M2042.18 379.31l-23.08 96.34c-7.08,-4.46 -14.78,-7.89 -23.08,-10.12 -8.3,-2.23 -17.2,-3.23 -26.71,-3.23 -47.76,0 -83.78,20.44 -108.08,61.52 -24.28,40.89 -36.42,102.21 -36.42,183.57l0 245.49 -97.15 0 0 -567.08 97.15 0 0 99.98c13.75,-40.88 33.79,-70.43 59.9,-89.05 25.9,-18.62 60.71,-27.93 104.22,-27.93 10.12,0 20.25,1.01 29.75,2.84 9.72,2.02 17.61,4.66 23.48,7.68z"/>
  <g id="_3634885952">
   <path class="fil1" d="M731.72 1328.39l-39.55 -92.09 -39.56 92.09 79.11 0zm70.15 94.94l-29.37 0 -31.07 -72.15 -99.06 0 -30.75 72.15 -29.38 0 109.92 -245.26 109.7 245.26zm526.82 0l-90.19 0 0 -238.62 26.58 0 0 214.25 63.61 0 0 24.37zm675.65 -119.31c0,-30.7 -8.76,-54.11 -26.26,-70.2 -17.52,-16.09 -43.04,-24.11 -76.64,-24.11l-22.42 0 0 188.61 19.62 0c36.39,0 63.09,-7.7 80.12,-23.05 17.04,-15.35 25.58,-39.09 25.58,-71.26zm26.59 0.32c0,39.24 -11.24,68.88 -33.75,88.93 -22.53,20.04 -55.65,30.06 -99.48,30.06l-45.26 0 0 -238.62 46.84 0c42.46,0 75.01,10.39 97.63,31.12 22.67,20.78 34.02,50.27 34.02,88.51zm-1100.83 -54.38c0,-13.92 -4.38,-24.1 -13.14,-30.59 -8.75,-6.44 -22.42,-9.66 -40.98,-9.66l-20.57 0 0 78.17 20.57 0c18.99,0 32.7,-3.01 41.3,-8.96 8.54,-6.02 12.82,-15.67 12.82,-28.96zm38.61 173.37l-32.29 0 -73.15 -112.66 -7.86 0 0 112.66 -26.58 0 0 -238.62 49.63 0c25.42,0 44.83,5.54 58.17,16.62 13.35,11.08 20.04,26.95 20.04,47.68 0,18.46 -5.69,33.07 -17.09,43.83 -11.39,10.76 -27.16,16.4 -47.36,16.88l76.48 113.61zm142.78 -214.56l-56.33 0 0 214.56 -26.59 0 0 -214.56 -56.33 0 0 -24.06 139.24 0 0 24.06zm272.27 214.56l-26.58 0 0 -238.62 26.58 0 0 238.62zm161.61 -116.14l-84.18 0 0 116.14 -26.58 0 0 -238.62 110.76 0 0 25 -84.18 0 0 72.47 84.18 0 0 25zm161.4 116.14l-120.9 0 0 -238.62 120.9 0 0 25 -94.31 0 0 72.47 94.31 0 0 25 -94.31 0 0 91.14 94.31 0 0 25zm481.19 0l-120.9 0 0 -238.62 120.9 0 0 25 -94.31 0 0 72.47 94.31 0 0 25 -94.31 0 0 91.14 94.31 0 0 25zm166.67 -63.71c0,21.26 -6.59,37.98 -19.78,50.16 -13.19,12.18 -31.17,18.3 -54.01,18.3 -15.77,0 -29.53,-3.59 -41.35,-10.81 -11.75,-7.17 -20.3,-17.19 -25.69,-29.96l18.89 -16.19c3.64,9.97 9.8,17.83 18.62,23.47 8.81,5.64 18.99,8.49 30.53,8.49 14.41,0 25.74,-3.69 33.92,-11.13 8.17,-7.38 12.29,-17.88 12.29,-31.38 0,-10.92 -3.8,-20.42 -11.34,-28.48 -7.59,-8.07 -20.3,-16.51 -38.13,-25.26 -21.1,-10.39 -35.82,-20.57 -44.09,-30.44 -8.28,-9.87 -12.45,-22.42 -12.45,-37.55 0,-17.61 5.96,-31.81 17.94,-42.62 11.97,-10.81 27.74,-16.24 47.46,-16.24 11.92,0 22.42,2.32 31.49,7.01 9.07,4.7 16.77,11.71 23.05,21.1l-18.09 16.82c-3.53,-6.27 -8.6,-11.18 -15.24,-14.66 -6.65,-3.53 -14.14,-5.27 -22.47,-5.27 -11.65,0 -20.84,2.95 -27.53,8.81 -6.7,5.86 -10.03,13.82 -10.03,23.79 0,9.07 2.53,16.72 7.65,22.89 5.12,6.17 15.19,13.34 30.23,21.46l1.37 0.63c44.51,23.89 66.77,49.58 66.77,77.06zm66.62 63.71l-26.58 0 0 -238.62 26.58 0 0 238.62zm274.27 -120.89c0,38.24 -10.39,68.72 -31.12,91.51 -20.78,22.73 -48.99,34.13 -84.75,34.13 -34.81,0 -63.66,-11.72 -86.55,-35.13 -22.84,-23.47 -34.3,-53.06 -34.3,-88.93 0,-35.44 11.4,-64.98 34.19,-88.61 22.73,-23.63 51.22,-35.45 85.44,-35.45 21.95,0 41.31,4.11 58.03,12.29 16.77,8.17 30.65,20.31 41.67,36.34l-19.89 15.92c-8.6,-12.77 -19.62,-22.57 -33.12,-29.37 -13.45,-6.8 -28.64,-10.18 -45.41,-10.18 -27.32,0 -49.85,9.5 -67.62,28.54 -17.78,18.99 -26.69,43.04 -26.69,72.05 0,27.53 9.02,50.63 27.1,69.41 18.1,18.72 40.51,28.11 67.2,28.11 23.58,0 43.52,-7.22 59.81,-21.62 16.31,-14.4 25.27,-32.49 26.9,-54.33l-74.68 0 0 -24.69 103.8 0zm249.01 127.54l-184.82 -188.09 0 181.44 -26.58 0 0 -245.26 184.82 187.61 0 -180.97 26.59 0 0 245.27z"/>
   <polygon class="fil3" points="2596.53,1536.47 2938.02,1536.47 2938.02,1500.68 2596.53,1500.68 "/>
   <polygon class="fil3" points="588.74,1536.47 974.33,1536.47 974.33,1500.68 588.74,1500.68 "/>
   <polygon class="fil3" points="2596.53,1072.27 2938.02,1072.27 2938.02,1090 588.74,1090 588.74,1072.27 "/>
  </g>
  <path class="fil1" d="M1054.2 1524.53l4.13 -0.37c0.19,1.68 0.65,3.04 1.38,4.12 0.72,1.07 1.83,1.94 3.34,2.6 1.51,0.66 3.21,1 5.11,1 1.68,0 3.16,-0.25 4.45,-0.75 1.29,-0.5 2.24,-1.19 2.87,-2.07 0.62,-0.88 0.95,-1.83 0.95,-2.85 0,-1.04 -0.31,-1.94 -0.91,-2.73 -0.6,-0.77 -1.61,-1.43 -3,-1.96 -0.89,-0.34 -2.87,-0.88 -5.92,-1.62 -3.06,-0.74 -5.2,-1.42 -6.42,-2.07 -1.59,-0.84 -2.77,-1.88 -3.54,-3.11 -0.79,-1.23 -1.18,-2.62 -1.18,-4.15 0,-1.69 0.49,-3.26 1.44,-4.72 0.95,-1.47 2.34,-2.57 4.17,-3.33 1.83,-0.75 3.87,-1.13 6.11,-1.13 2.46,0 4.64,0.4 6.52,1.19 1.88,0.79 3.34,1.96 4.35,3.51 1.02,1.54 1.56,3.29 1.64,5.24l-4.23 0.33c-0.22,-2.1 -0.99,-3.69 -2.3,-4.76 -1.31,-1.08 -3.25,-1.61 -5.8,-1.61 -2.66,0 -4.61,0.49 -5.83,1.46 -1.22,0.98 -1.83,2.15 -1.83,3.53 0,1.2 0.43,2.18 1.29,2.95 0.85,0.76 3.06,1.56 6.64,2.37 3.58,0.81 6.04,1.52 7.37,2.12 1.93,0.89 3.36,2.02 4.28,3.38 0.92,1.36 1.38,2.94 1.38,4.72 0,1.77 -0.51,3.43 -1.52,5 -1.01,1.56 -2.47,2.78 -4.37,3.65 -1.89,0.87 -4.02,1.3 -6.41,1.3 -3.01,0 -5.52,-0.44 -7.55,-1.32 -2.04,-0.87 -3.62,-2.19 -4.78,-3.96 -1.16,-1.76 -1.77,-3.75 -1.83,-5.97zm48.78 -5.51c0,-5.51 1.49,-9.83 4.46,-12.96 2.97,-3.12 6.79,-4.68 11.49,-4.68 3.08,0 5.84,0.74 8.31,2.2 2.46,1.46 4.35,3.51 5.64,6.14 1.3,2.62 1.95,5.59 1.95,8.91 0,3.37 -0.68,6.39 -2.04,9.05 -1.37,2.67 -3.29,4.68 -5.79,6.05 -2.5,1.37 -5.2,2.05 -8.09,2.05 -3.14,0 -5.93,-0.76 -8.4,-2.27 -2.47,-1.51 -4.34,-3.57 -5.61,-6.2 -1.27,-2.61 -1.91,-5.37 -1.91,-8.29zm4.56 0.08c0,4 1.08,7.16 3.23,9.46 2.15,2.3 4.86,3.45 8.11,3.45 3.32,0 6.04,-1.17 8.18,-3.49 2.14,-2.32 3.21,-5.62 3.21,-9.9 0,-2.7 -0.46,-5.06 -1.37,-7.08 -0.92,-2.02 -2.26,-3.58 -4.02,-4.69 -1.77,-1.11 -3.74,-1.67 -5.93,-1.67 -3.11,0 -5.8,1.07 -8.04,3.21 -2.25,2.13 -3.37,5.7 -3.37,10.7zm74.34 4.45l4.42 1.12c-0.92,3.62 -2.58,6.37 -4.98,8.27 -2.39,1.89 -5.32,2.85 -8.78,2.85 -3.58,0 -6.49,-0.73 -8.74,-2.19 -2.24,-1.46 -3.95,-3.57 -5.12,-6.34 -1.17,-2.77 -1.76,-5.74 -1.76,-8.92 0,-3.47 0.65,-6.48 1.98,-9.06 1.32,-2.58 3.21,-4.54 5.64,-5.88 2.44,-1.34 5.13,-2.01 8.06,-2.01 3.33,0 6.13,0.84 8.39,2.54 2.27,1.7 3.85,4.08 4.74,7.14l-4.33 1.02c-0.76,-2.41 -1.89,-4.18 -3.35,-5.29 -1.47,-1.1 -3.31,-1.65 -5.53,-1.65 -2.55,0 -4.69,0.61 -6.4,1.84 -1.71,1.22 -2.92,2.87 -3.61,4.93 -0.7,2.07 -1.05,4.2 -1.05,6.39 0,2.83 0.41,5.3 1.24,7.41 0.82,2.12 2.1,3.69 3.83,4.74 1.73,1.04 3.61,1.56 5.63,1.56 2.46,0 4.54,-0.72 6.24,-2.13 1.71,-1.43 2.86,-3.53 3.47,-6.34zm28.3 11.67l0 -33.28 4.41 0 0 33.28 -4.41 0zm29.95 0l0 -33.28 24.03 0 0 3.91 -19.61 0 0 10.22 18.36 0 0 3.91 -18.36 0 0 11.34 20.4 0 0 3.9 -24.82 0zm57.06 0l0 -29.38 -10.97 0 0 -3.91 26.36 0 0 3.91 -10.97 0 0 29.38 -4.42 0zm30.53 0l12.77 -33.28 4.84 0 13.55 33.28 -5.01 0 -3.85 -10.09 -14.02 0 -3.61 10.09 -4.67 0zm9.58 -13.67l11.34 0 -3.47 -9.23c-1.05,-2.8 -1.84,-5.12 -2.39,-6.95 -0.46,2.17 -1.07,4.3 -1.84,6.41l-3.65 9.77zm47.78 13.67l0 -29.38 -10.97 0 0 -3.91 26.36 0 0 3.91 -10.97 0 0 29.38 -4.41 0zm37.71 0l0 -33.28 24.03 0 0 3.91 -19.61 0 0 10.22 18.35 0 0 3.91 -18.35 0 0 11.34 20.4 0 0 3.9 -24.82 0zm98.88 -11.67l4.42 1.12c-0.92,3.62 -2.58,6.37 -4.98,8.27 -2.39,1.89 -5.32,2.85 -8.78,2.85 -3.58,0 -6.49,-0.73 -8.74,-2.19 -2.25,-1.46 -3.95,-3.57 -5.12,-6.34 -1.17,-2.77 -1.76,-5.74 -1.76,-8.92 0,-3.47 0.66,-6.48 1.99,-9.06 1.32,-2.58 3.2,-4.54 5.64,-5.88 2.44,-1.34 5.13,-2.01 8.06,-2.01 3.33,0 6.13,0.84 8.4,2.54 2.26,1.7 3.85,4.08 4.74,7.14l-4.33 1.02c-0.77,-2.41 -1.89,-4.18 -3.35,-5.29 -1.47,-1.1 -3.3,-1.65 -5.53,-1.65 -2.55,0 -4.69,0.61 -6.4,1.84 -1.72,1.22 -2.92,2.87 -3.61,4.93 -0.71,2.07 -1.05,4.2 -1.05,6.39 0,2.83 0.41,5.3 1.23,7.41 0.82,2.12 2.1,3.69 3.84,4.74 1.73,1.04 3.61,1.56 5.63,1.56 2.46,0 4.54,-0.72 6.24,-2.13 1.71,-1.43 2.86,-3.53 3.46,-6.34zm49.35 -21.61l4.41 0 0 19.22c0,3.35 -0.38,6 -1.12,7.97 -0.76,1.96 -2.13,3.57 -4.09,4.8 -1.98,1.23 -4.56,1.85 -7.77,1.85 -3.1,0 -5.65,-0.54 -7.63,-1.61 -1.99,-1.08 -3.4,-2.63 -4.24,-4.66 -0.85,-2.04 -1.27,-4.82 -1.27,-8.35l0 -19.22 4.42 0 0 19.21c0,2.89 0.27,5.03 0.81,6.39 0.53,1.37 1.44,2.43 2.75,3.17 1.31,0.74 2.9,1.11 4.79,1.11 3.22,0 5.52,-0.74 6.9,-2.2 1.36,-1.47 2.05,-4.29 2.05,-8.48l0 -19.21zm56.12 33.28l0 -33.28 14.75 0c2.97,0 5.22,0.3 6.77,0.9 1.53,0.6 2.76,1.65 3.69,3.16 0.93,1.51 1.38,3.19 1.38,5.01 0,2.36 -0.77,4.35 -2.29,5.97 -1.53,1.62 -3.89,2.64 -7.07,3.08 1.17,0.56 2.05,1.12 2.65,1.66 1.28,1.18 2.51,2.66 3.65,4.43l5.75 9.06 -5.5 0 -4.4 -6.93c-1.28,-2.01 -2.35,-3.53 -3.17,-4.59 -0.83,-1.06 -1.58,-1.8 -2.24,-2.22 -0.65,-0.42 -1.32,-0.72 -2.01,-0.88 -0.5,-0.1 -1.31,-0.16 -2.45,-0.16l-5.1 0 0 14.78 -4.41 0zm4.41 -18.6l9.45 0c2.01,0 3.58,-0.21 4.71,-0.62 1.12,-0.41 1.99,-1.08 2.57,-2.01 0.59,-0.91 0.88,-1.9 0.88,-2.98 0,-1.57 -0.57,-2.87 -1.71,-3.88 -1.14,-1.02 -2.93,-1.52 -5.39,-1.52l-10.52 0 0 11.01zm43.1 18.6l12.77 -33.28 4.84 0 13.55 33.28 -5.02 0 -3.85 -10.09 -14.02 0 -3.62 10.09 -4.67 0zm9.57 -13.67l11.35 0 -3.47 -9.23c-1.04,-2.8 -1.84,-5.12 -2.39,-6.95 -0.46,2.17 -1.06,4.3 -1.84,6.41l-3.65 9.77zm41.34 2.98l4.13 -0.37c0.2,1.68 0.66,3.04 1.37,4.12 0.72,1.07 1.84,1.94 3.35,2.6 1.51,0.66 3.21,1 5.11,1 1.67,0 3.16,-0.25 4.45,-0.75 1.28,-0.5 2.24,-1.19 2.87,-2.07 0.62,-0.88 0.94,-1.83 0.94,-2.85 0,-1.04 -0.31,-1.94 -0.91,-2.73 -0.61,-0.77 -1.6,-1.43 -3,-1.96 -0.89,-0.34 -2.87,-0.88 -5.92,-1.62 -3.07,-0.74 -5.2,-1.42 -6.43,-2.07 -1.59,-0.84 -2.76,-1.88 -3.54,-3.11 -0.78,-1.23 -1.18,-2.62 -1.18,-4.15 0,-1.69 0.48,-3.26 1.44,-4.72 0.94,-1.47 2.34,-2.57 4.17,-3.33 1.82,-0.75 3.87,-1.13 6.1,-1.13 2.46,0 4.65,0.4 6.53,1.19 1.88,0.79 3.33,1.96 4.34,3.51 1.02,1.54 1.56,3.29 1.63,5.24l-4.22 0.33c-0.23,-2.1 -1,-3.69 -2.31,-4.76 -1.31,-1.08 -3.25,-1.61 -5.8,-1.61 -2.66,0 -4.61,0.49 -5.83,1.46 -1.22,0.98 -1.83,2.15 -1.83,3.53 0,1.2 0.43,2.18 1.29,2.95 0.86,0.76 3.07,1.56 6.64,2.37 3.58,0.81 6.03,1.52 7.37,2.12 1.93,0.89 3.36,2.02 4.28,3.38 0.92,1.36 1.38,2.94 1.38,4.72 0,1.77 -0.51,3.43 -1.51,5 -1.02,1.56 -2.47,2.78 -4.37,3.65 -1.89,0.87 -4.02,1.3 -6.4,1.3 -3.01,0 -5.53,-0.44 -7.56,-1.32 -2.04,-0.87 -3.62,-2.19 -4.78,-3.96 -1.16,-1.76 -1.77,-3.75 -1.82,-5.97zm50.14 10.69l0 -33.28 12.56 0c2.21,0 3.9,0.11 5.07,0.32 1.64,0.27 3,0.79 4.12,1.55 1.1,0.77 1.99,1.84 2.66,3.21 0.67,1.37 1.01,2.88 1.01,4.54 0,2.82 -0.91,5.21 -2.71,7.16 -1.8,1.96 -5.05,2.94 -9.76,2.94l-8.54 0 0 13.57 -4.41 0zm4.41 -17.47l8.6 0c2.86,0 4.86,-0.53 6.07,-1.59 1.19,-1.06 1.79,-2.55 1.79,-4.47 0,-1.39 -0.35,-2.58 -1.06,-3.57 -0.71,-0.99 -1.63,-1.65 -2.78,-1.97 -0.74,-0.19 -2.11,-0.29 -4.11,-0.29l-8.51 0 0 11.9zm66.08 -15.81l4.41 0 0 19.22c0,3.35 -0.38,6 -1.13,7.97 -0.76,1.96 -2.12,3.57 -4.09,4.8 -1.98,1.23 -4.56,1.85 -7.77,1.85 -3.11,0 -5.65,-0.54 -7.63,-1.61 -1.98,-1.08 -3.39,-2.63 -4.24,-4.66 -0.84,-2.04 -1.27,-4.82 -1.27,-8.35l0 -19.22 4.41 0 0 19.21c0,2.89 0.28,5.03 0.81,6.39 0.53,1.37 1.45,2.43 2.76,3.17 1.31,0.74 2.9,1.11 4.78,1.11 3.23,0 5.53,-0.74 6.9,-2.2 1.38,-1.47 2.06,-4.29 2.06,-8.48l0 -19.21zm29.41 33.28l0 -33.28 4.52 0 17.46 26.12 0 -26.12 4.24 0 0 33.28 -4.53 0 -17.46 -26.12 0 26.12 -4.23 0zm51.3 0l0 -33.28 11.47 0c2.58,0 4.56,0.16 5.93,0.47 1.9,0.44 3.53,1.24 4.88,2.39 1.76,1.49 3.07,3.38 3.94,5.69 0.87,2.31 1.31,4.95 1.31,7.92 0,2.53 -0.29,4.76 -0.88,6.72 -0.59,1.95 -1.35,3.57 -2.27,4.85 -0.93,1.28 -1.94,2.29 -3.04,3.01 -1.09,0.74 -2.41,1.3 -3.97,1.67 -1.55,0.38 -3.33,0.57 -5.34,0.57l-12.01 0zm4.41 -3.9l7.1 0c2.19,0 3.91,-0.2 5.16,-0.62 1.25,-0.41 2.24,-0.98 2.99,-1.73 1.03,-1.04 1.85,-2.45 2.43,-4.22 0.57,-1.77 0.87,-3.91 0.87,-6.43 0,-3.49 -0.57,-6.17 -1.71,-8.04 -1.14,-1.88 -2.52,-3.13 -4.16,-3.77 -1.18,-0.46 -3.07,-0.68 -5.69,-0.68l-6.98 0 0 25.47zm46.94 3.9l0 -33.28 24.03 0 0 3.91 -19.61 0 0 10.22 18.35 0 0 3.91 -18.35 0 0 11.34 20.4 0 0 3.9 -24.82 0zm48.7 0l0 -33.28 14.75 0c2.97,0 5.23,0.3 6.76,0.9 1.55,0.6 2.78,1.65 3.7,3.16 0.92,1.51 1.37,3.19 1.37,5.01 0,2.36 -0.76,4.35 -2.29,5.97 -1.52,1.62 -3.89,2.64 -7.08,3.08 1.17,0.56 2.05,1.12 2.66,1.66 1.29,1.18 2.51,2.66 3.64,4.43l5.75 9.06 -5.5 0 -4.4 -6.93c-1.28,-2.01 -2.34,-3.53 -3.17,-4.59 -0.83,-1.06 -1.58,-1.8 -2.24,-2.22 -0.65,-0.42 -1.32,-0.72 -2.01,-0.88 -0.5,-0.1 -1.31,-0.16 -2.45,-0.16l-5.09 0 0 14.78 -4.42 0zm4.42 -18.6l9.45 0c2.02,0 3.58,-0.21 4.71,-0.62 1.13,-0.41 1.99,-1.08 2.57,-2.01 0.59,-0.91 0.88,-1.9 0.88,-2.98 0,-1.57 -0.57,-2.87 -1.71,-3.88 -1.14,-1.02 -2.93,-1.52 -5.38,-1.52l-10.52 0 0 11.01zm46.83 18.6l0 -33.28 24.04 0 0 3.91 -19.62 0 0 10.22 18.36 0 0 3.91 -18.36 0 0 11.34 20.41 0 0 3.9 -24.83 0zm74.99 0l0 -33.28 4.42 0 0 29.38 16.37 0 0 3.9 -20.79 0zm44.48 0l0 -33.28 4.42 0 0 33.28 -4.42 0zm29.77 0l0 -33.28 6.6 0 7.87 23.56c0.72,2.19 1.26,3.84 1.59,4.93 0.38,-1.21 0.97,-2.99 1.78,-5.34l8.01 -23.15 5.89 0 0 33.28 -4.23 0 0 -27.84 -9.71 27.84 -3.96 0 -9.62 -28.36 0 28.36 -4.23 0zm57.25 0l0 -33.28 4.41 0 0 33.28 -4.41 0zm38.31 0l0 -29.38 -10.96 0 0 -3.91 26.35 0 0 3.91 -10.97 0 0 29.38 -4.42 0zm30.53 0l12.78 -33.28 4.84 0 13.55 33.28 -5.01 0 -3.85 -10.09 -14.02 0 -3.61 10.09 -4.68 0zm9.58 -13.67l11.35 0 -3.48 -9.23c-1.04,-2.8 -1.83,-5.12 -2.38,-6.95 -0.46,2.17 -1.06,4.3 -1.84,6.41l-3.65 9.77zm47.78 13.67l0 -29.38 -10.97 0 0 -3.91 26.36 0 0 3.91 -10.97 0 0 29.38 -4.42 0zm30.52 0l12.77 -33.28 4.84 0 13.55 33.28 -5.02 0 -3.85 -10.09 -14.02 0 -3.61 10.09 -4.67 0zm9.57 -13.67l11.34 0 -3.47 -9.23c-1.04,-2.8 -1.83,-5.12 -2.39,-6.95 -0.46,2.17 -1.07,4.3 -1.83,6.41l-3.65 9.77z"/>
 </g>
</svg>
