<?xml version="1.0" encoding="UTF-8"?>
<!DOCTYPE svg PUBLIC "-//W3C//DTD SVG 1.1//EN" "http://www.w3.org/Graphics/SVG/1.1/DTD/svg11.dtd">
<!-- Creator: CorelDRAW 2021.5 -->
<svg xmlns="http://www.w3.org/2000/svg" xml:space="preserve" width="457.549mm" height="257.361mm" version="1.1" style="shape-rendering:geometricPrecision; text-rendering:geometricPrecision; image-rendering:optimizeQuality; fill-rule:evenodd; clip-rule:evenodd"
viewBox="0 0 1749.84 984.25"
 xmlns:xlink="http://www.w3.org/1999/xlink"
 xmlns:xodm="http://www.corel.com/coreldraw/odm/2003">
 <defs>
  <style type="text/css">
   <![CDATA[
    .str0 {stroke:white;stroke-width:0.29;stroke-miterlimit:22.9256}
    .fil2 {fill:#00B90F}
    .fil1 {fill:white}
    .fil0 {fill:#00B90F;fill-rule:nonzero}
   ]]>
  </style>
 </defs>
 <g id="Слой_x0020_1">
  <metadata id="CorelCorpID_0Corel-Layer"/>
  <polygon class="fil0" points="1247.1,206.04 1188.67,206.04 1188.67,517.87 1125.52,517.87 1125.52,206.04 1081.31,206.04 1081.31,149.21 1125.52,149.21 1125.52,0 1188.67,0 1188.67,149.21 1247.1,149.21 "/>
  <path class="fil0" d="M787.14 516.73l-86.38 3.32c-51.47,5.07 -50.55,8.52 -110.32,8.52 -51.45,0 -93.68,-18.69 -126.97,-55.92 -33.16,-37.24 -49.74,-84.87 -49.74,-142.89 0,-56.84 16.71,-103.16 50,-138.94 33.29,-35.92 76.05,-53.82 128.29,-53.82 29.6,0 55.66,5.79 78.29,17.37 22.63,11.44 40.52,28.02 53.68,49.6l0 -55.92 63.15 0 0 368.66zm-195 -319.73c-156.46,0 -149.46,270.78 -2.79,270.78 147.6,0 161.38,-270.78 2.79,-270.78z"/>
  <path class="fil1 str0" d="M749.66 386.61c-10.43,89.85 -99.97,136.99 -195.29,138.64 221.15,64.56 345.91,-30.24 448.55,-93.97 87.7,-52.35 243.33,-67.68 333.16,30.18 -74.56,-130.75 -235.97,-138.06 -336.31,-103.54 -107.6,37.02 -196.27,149.06 -292.42,160.35 47.81,-33.03 49.48,-101.16 42.31,-131.66z"/>
  <path class="fil0" d="M1056.17 144.99l-15 62.63c-4.61,-2.9 -9.61,-5.13 -15,-6.58 -5.39,-1.45 -11.18,-2.1 -17.36,-2.1 -31.05,0 -54.47,13.29 -70.27,39.99 -15.79,26.58 -23.68,66.45 -23.68,119.34l0 159.6 -63.16 0 0 -368.67 63.16 0 0 65c8.94,-26.58 21.97,-45.79 38.94,-57.89 16.84,-12.1 39.47,-18.16 67.76,-18.16 6.58,0 13.16,0.65 19.34,1.84 6.32,1.31 11.45,3.03 15.27,4.99z"/>
  <g id="_109140227504">
   <path class="fil0" d="M110.72 830.11l-29.3 -68.22 -29.3 68.22 58.6 0zm51.96 70.32l-21.76 0 -23.01 -53.45 -73.37 0 -22.78 53.45 -21.76 0 81.42 -181.68 81.26 181.68zm390.24 0l-66.81 0 0 -176.75 19.69 0 0 158.7 47.12 0 0 18.05zm500.49 -88.38c0,-22.74 -6.49,-40.08 -19.45,-52 -12.97,-11.92 -31.88,-17.86 -56.77,-17.86l-16.61 0 0 139.71 14.53 0c26.96,0 46.73,-5.7 59.35,-17.07 12.62,-11.37 18.95,-28.95 18.95,-52.79zm19.69 0.24c0,29.07 -8.32,51.02 -25,65.87 -16.69,14.85 -41.22,22.27 -73.69,22.27l-33.52 0 0 -176.75 34.69 0c31.45,0 55.56,7.7 72.32,23.05 16.79,15.39 25.2,37.23 25.2,65.56zm-815.43 -40.28c0,-10.31 -3.25,-17.85 -9.73,-22.66 -6.48,-4.77 -16.6,-7.15 -30.36,-7.15l-15.24 0 0 57.9 15.24 0c14.06,0 24.22,-2.23 30.59,-6.64 6.33,-4.46 9.5,-11.61 9.5,-21.45zm28.6 128.42l-23.92 0 -54.19 -83.45 -5.82 0 0 83.45 -19.69 0 0 -176.75 36.76 0c18.83,0 33.21,4.1 43.09,12.31 9.89,8.21 14.85,19.97 14.85,35.32 0,13.67 -4.22,24.5 -12.66,32.47 -8.44,7.97 -20.12,12.15 -35.08,12.51l56.65 84.15zm105.76 -158.94l-41.73 0 0 158.94 -19.69 0 0 -158.94 -41.73 0 0 -17.82 103.14 0 0 17.82zm201.68 158.94l-19.69 0 0 -176.75 19.69 0 0 176.75zm119.71 -86.03l-62.35 0 0 86.03 -19.69 0 0 -176.75 82.04 0 0 18.52 -62.35 0 0 53.68 62.35 0 0 18.52zm119.56 86.03l-89.55 0 0 -176.75 89.55 0 0 18.52 -69.86 0 0 53.68 69.86 0 0 18.52 -69.86 0 0 67.51 69.86 0 0 18.52zm356.44 0l-89.55 0 0 -176.75 89.55 0 0 18.52 -69.86 0 0 53.68 69.86 0 0 18.52 -69.86 0 0 67.51 69.86 0 0 18.52zm123.46 -47.2c0,15.75 -4.88,28.13 -14.65,37.16 -9.77,9.02 -23.09,13.56 -40.01,13.56 -11.68,0 -21.88,-2.66 -30.63,-8.01 -8.71,-5.31 -15.04,-12.74 -19.03,-22.19l13.99 -12c2.69,7.38 7.26,13.21 13.79,17.39 6.52,4.18 14.06,6.29 22.62,6.29 10.67,0 19.07,-2.73 25.13,-8.24 6.05,-5.47 9.1,-13.24 9.1,-23.24 0,-8.09 -2.81,-15.12 -8.4,-21.1 -5.62,-5.98 -15.04,-12.23 -28.25,-18.71 -15.63,-7.7 -26.53,-15.24 -32.66,-22.55 -6.14,-7.31 -9.23,-16.6 -9.23,-27.82 0,-13.05 4.41,-23.56 13.29,-31.57 8.87,-8.01 20.55,-12.03 35.16,-12.03 8.83,0 16.6,1.72 23.32,5.2 6.72,3.48 12.43,8.68 17.07,15.63l-13.4 12.46c-2.61,-4.65 -6.37,-8.28 -11.29,-10.86 -4.93,-2.62 -10.48,-3.91 -16.65,-3.91 -8.63,0 -15.43,2.19 -20.39,6.52 -4.96,4.34 -7.43,10.24 -7.43,17.62 0,6.72 1.88,12.38 5.67,16.96 3.79,4.57 11.25,9.88 22.39,15.9l1.02 0.47c32.97,17.7 49.46,36.73 49.46,57.08zm49.35 47.2l-19.69 0 0 -176.75 19.69 0 0 176.75zm203.17 -89.55c0,28.32 -7.7,50.91 -23.06,67.79 -15.39,16.84 -36.29,25.28 -62.78,25.28 -25.79,0 -47.16,-8.68 -64.11,-26.02 -16.92,-17.39 -25.4,-39.3 -25.4,-65.87 0,-26.25 8.45,-48.13 25.32,-65.64 16.84,-17.51 37.94,-26.26 63.29,-26.26 16.26,0 30.6,3.05 42.98,9.11 12.42,6.05 22.7,15.04 30.87,26.92l-14.73 11.8c-6.37,-9.46 -14.53,-16.72 -24.53,-21.76 -9.96,-5.04 -21.22,-7.54 -33.64,-7.54 -20.24,0 -36.92,7.03 -50.09,21.14 -13.17,14.06 -19.77,31.88 -19.77,53.37 0,20.39 6.68,37.51 20.08,51.42 13.4,13.87 30.01,20.82 49.78,20.82 17.47,0 32.23,-5.35 44.3,-16.02 12.08,-10.67 18.72,-24.07 19.93,-40.24l-55.32 0 0 -18.29 76.89 0zm184.45 94.47l-136.91 -139.32 0 134.4 -19.69 0 0 -181.68 136.9 138.97 0 -134.05 19.69 0 0 181.68z"/>
   <polygon class="fil2" points="1492.07,984.25 1745.03,984.25 1745.03,957.74 1492.07,957.74 "/>
   <polygon class="fil2" points="4.81,984.25 290.44,984.25 290.44,957.74 4.81,957.74 "/>
   <polygon class="fil2" points="1492.07,640.39 1745.03,640.39 1745.03,653.53 4.81,653.53 4.81,640.39 "/>
  </g>
 </g>
</svg>
