<?xml version="1.0" encoding="UTF-8"?>
<!DOCTYPE svg PUBLIC "-//W3C//DTD SVG 1.1//EN" "http://www.w3.org/Graphics/SVG/1.1/DTD/svg11.dtd">
<!-- Creator: CorelDRAW 2021.5 -->
<svg xmlns="http://www.w3.org/2000/svg" xml:space="preserve" width="457.549mm" height="273.83mm" version="1.1" style="shape-rendering:geometricPrecision; text-rendering:geometricPrecision; image-rendering:optimizeQuality; fill-rule:evenodd; clip-rule:evenodd"
viewBox="0 0 1048.63 627.57"
 xmlns:xlink="http://www.w3.org/1999/xlink"
 xmlns:xodm="http://www.corel.com/coreldraw/odm/2003">
 <defs>
  <style type="text/css">
   <![CDATA[
    .str0 {stroke:white;stroke-width:0.17;stroke-miterlimit:22.9256}
    .fil2 {fill:white}
    .fil1 {fill:#383E42}
    .fil0 {fill:white;fill-rule:nonzero}
   ]]>
  </style>
 </defs>
 <g id="Слой_x0020_1">
  <metadata id="CorelCorpID_0Corel-Layer"/>
  <g id="_4447794752">
   <g>
    <polygon class="fil0" points="787.08,145.47 745.83,145.47 745.83,365.63 701.24,365.63 701.24,145.47 670.03,145.47 670.03,105.34 701.24,105.34 701.24,0 745.83,0 745.83,105.34 787.08,105.34 "/>
    <path class="fil0" d="M462.34 364.82l-60.98 2.35c-36.34,3.58 -35.69,6.02 -77.89,6.02 -36.32,0 -66.14,-13.19 -89.64,-39.48 -23.41,-26.29 -35.12,-59.92 -35.12,-100.88 0,-40.13 11.8,-72.83 35.3,-98.1 23.5,-25.36 53.69,-38 90.57,-38 20.9,0 39.3,4.09 55.27,12.26 15.98,8.08 28.61,19.79 37.9,35.02l0 -39.48 44.59 0 0 260.28zm-137.67 -225.73c-110.46,0 -105.52,191.18 -1.97,191.18 104.21,0 113.93,-191.18 1.97,-191.18z"/>
    <path class="fil1 str0" d="M435.88 272.95c-7.36,63.44 -70.58,96.71 -137.88,97.88 156.14,45.58 244.22,-21.35 316.68,-66.34 61.92,-36.96 171.79,-47.79 235.21,21.31 -52.64,-92.31 -166.6,-97.47 -237.44,-73.1 -75.97,26.14 -138.57,105.24 -206.46,113.21 33.75,-23.32 34.93,-71.42 29.87,-92.95z"/>
    <path class="fil0" d="M652.28 102.37l-10.59 44.22c-3.25,-2.05 -6.78,-3.62 -10.59,-4.65 -3.81,-1.02 -7.89,-1.48 -12.26,-1.48 -21.92,0 -38.46,9.38 -49.61,28.24 -11.15,18.77 -16.72,46.91 -16.72,84.26l0 112.68 -44.59 0 0 -260.28 44.59 0 0 45.89c6.31,-18.76 15.51,-32.33 27.49,-40.87 11.89,-8.55 27.87,-12.82 47.84,-12.82 4.64,0 9.29,0.46 13.66,1.3 4.46,0.93 8.08,2.14 10.78,3.53z"/>
   </g>
   <g>
    <path class="fil0" d="M66.35 535.2l-17.56 -40.88 -17.56 40.88 35.12 0zm31.14 42.14l-13.04 0 -13.79 -32.03 -43.97 0 -13.65 32.03 -13.04 0 48.79 -108.87 48.7 108.87zm233.86 0l-40.04 0 0 -105.92 11.8 0 0 95.11 28.24 0 0 10.82zm299.93 -52.96c0,-13.63 -3.89,-24.02 -11.66,-31.16 -7.78,-7.14 -19.11,-10.7 -34.02,-10.7l-9.95 0 0 83.73 8.71 0c16.16,0 28,-3.42 35.56,-10.23 7.56,-6.81 11.36,-17.35 11.36,-31.63zm11.8 0.14c0,17.42 -4.99,30.58 -14.98,39.48 -10,8.9 -24.7,13.34 -44.16,13.34l-20.09 0 0 -105.92 20.79 0c18.85,0 33.3,4.61 43.34,13.82 10.06,9.22 15.1,22.31 15.1,39.29zm-488.66 -24.14c0,-6.18 -1.95,-10.7 -5.83,-13.58 -3.88,-2.86 -9.95,-4.29 -18.19,-4.29l-9.13 0 0 34.7 9.13 0c8.43,0 14.52,-1.34 18.33,-3.98 3.79,-2.67 5.69,-6.96 5.69,-12.85zm17.14 76.96l-14.33 0 -32.47 -50.01 -3.49 0 0 50.01 -11.8 0 0 -105.92 22.03 0c11.29,0 19.9,2.46 25.82,7.38 5.92,4.92 8.9,11.97 8.9,21.17 0,8.19 -2.53,14.68 -7.59,19.46 -5.06,4.78 -12.06,7.28 -21.02,7.49l33.95 50.43zm63.38 -95.25l-25 0 0 95.25 -11.8 0 0 -95.25 -25 0 0 -10.68 61.81 0 0 10.68zm120.86 95.25l-11.8 0 0 -105.92 11.8 0 0 105.92zm71.74 -51.56l-37.37 0 0 51.56 -11.8 0 0 -105.92 49.17 0 0 11.1 -37.37 0 0 32.17 37.37 0 0 11.1zm71.65 51.56l-53.67 0 0 -105.92 53.67 0 0 11.1 -41.86 0 0 32.17 41.86 0 0 11.1 -41.86 0 0 40.46 41.86 0 0 11.1zm213.6 0l-53.67 0 0 -105.92 53.67 0 0 11.1 -41.86 0 0 32.17 41.86 0 0 11.1 -41.86 0 0 40.46 41.86 0 0 11.1zm73.99 -28.28c0,9.44 -2.93,16.86 -8.78,22.27 -5.85,5.41 -13.84,8.12 -23.98,8.12 -7,0 -13.11,-1.59 -18.36,-4.8 -5.22,-3.18 -9.01,-7.63 -11.4,-13.3l8.38 -7.19c1.61,4.43 4.35,7.91 8.27,10.42 3.91,2.5 8.43,3.77 13.55,3.77 6.4,0 11.43,-1.64 15.06,-4.94 3.63,-3.28 5.45,-7.94 5.45,-13.93 0,-4.85 -1.69,-9.06 -5.03,-12.64 -3.37,-3.58 -9.01,-7.33 -16.93,-11.21 -9.37,-4.61 -15.9,-9.13 -19.57,-13.51 -3.68,-4.38 -5.53,-9.95 -5.53,-16.67 0,-7.82 2.65,-14.12 7.96,-18.92 5.31,-4.8 12.32,-7.21 21.07,-7.21 5.29,0 9.95,1.03 13.98,3.11 4.03,2.08 7.45,5.2 10.23,9.37l-8.03 7.47c-1.57,-2.78 -3.82,-4.96 -6.77,-6.51 -2.95,-1.57 -6.28,-2.34 -9.98,-2.34 -5.17,0 -9.25,1.31 -12.22,3.91 -2.97,2.6 -4.45,6.13 -4.45,10.56 0,4.03 1.12,7.42 3.4,10.16 2.27,2.74 6.74,5.92 13.42,9.53l0.61 0.28c19.76,10.61 29.64,22.01 29.64,34.21zm29.57 28.28l-11.8 0 0 -105.92 11.8 0 0 105.92zm121.75 -53.66c0,16.97 -4.61,30.51 -13.82,40.62 -9.22,10.09 -21.75,15.15 -37.62,15.15 -15.45,0 -28.26,-5.2 -38.42,-15.59 -10.14,-10.42 -15.22,-23.55 -15.22,-39.48 0,-15.73 5.06,-28.84 15.18,-39.33 10.09,-10.49 22.74,-15.74 37.93,-15.74 9.74,0 18.34,1.83 25.76,5.46 7.45,3.63 13.6,9.01 18.5,16.13l-8.83 7.07c-3.82,-5.67 -8.71,-10.02 -14.7,-13.04 -5.97,-3.02 -12.71,-4.52 -20.16,-4.52 -12.13,0 -22.13,4.22 -30.02,12.67 -7.89,8.43 -11.85,19.11 -11.85,31.98 0,12.22 4,22.48 12.03,30.81 8.03,8.31 17.98,12.48 29.83,12.48 10.47,0 19.32,-3.21 26.55,-9.6 7.24,-6.39 11.22,-14.42 11.94,-24.12l-33.15 0 0 -10.96 46.08 0zm110.54 56.61l-82.04 -83.49 0 80.54 -11.8 0 0 -108.87 82.04 83.28 0 -80.33 11.8 0 0 108.88z"/>
    <polygon class="fil2" points="894.16,627.57 1045.74,627.57 1045.74,611.69 894.16,611.69 "/>
    <polygon class="fil2" points="2.88,627.57 174.05,627.57 174.05,611.69 2.88,611.69 "/>
    <polygon class="fil2" points="894.16,421.51 1045.74,421.51 1045.74,429.38 2.88,429.38 2.88,421.51 "/>
   </g>
   <path class="fil0" d="M209.5 622.27l1.84 -0.17c0.09,0.74 0.29,1.35 0.61,1.83 0.32,0.47 0.81,0.86 1.48,1.15 0.67,0.29 1.43,0.44 2.27,0.44 0.74,0 1.4,-0.11 1.97,-0.34 0.57,-0.22 0.99,-0.53 1.27,-0.92 0.28,-0.39 0.42,-0.81 0.42,-1.27 0,-0.46 -0.14,-0.86 -0.4,-1.21 -0.27,-0.34 -0.71,-0.63 -1.33,-0.87 -0.39,-0.15 -1.27,-0.39 -2.63,-0.72 -1.36,-0.33 -2.31,-0.63 -2.85,-0.92 -0.71,-0.37 -1.23,-0.83 -1.57,-1.38 -0.35,-0.55 -0.52,-1.16 -0.52,-1.84 0,-0.75 0.22,-1.45 0.64,-2.09 0.42,-0.65 1.04,-1.14 1.85,-1.48 0.81,-0.34 1.72,-0.5 2.71,-0.5 1.09,0 2.06,0.18 2.89,0.53 0.84,0.35 1.48,0.87 1.93,1.56 0.45,0.68 0.69,1.46 0.73,2.33l-1.88 0.14c-0.1,-0.93 -0.44,-1.64 -1.02,-2.11 -0.58,-0.48 -1.44,-0.71 -2.58,-0.71 -1.18,0 -2.05,0.22 -2.59,0.65 -0.54,0.43 -0.81,0.95 -0.81,1.57 0,0.53 0.19,0.97 0.57,1.31 0.38,0.34 1.36,0.69 2.95,1.05 1.59,0.36 2.68,0.67 3.27,0.94 0.86,0.39 1.49,0.89 1.9,1.5 0.41,0.61 0.61,1.3 0.61,2.1 0,0.79 -0.23,1.52 -0.67,2.22 -0.45,0.69 -1.09,1.23 -1.94,1.62 -0.84,0.38 -1.79,0.58 -2.84,0.58 -1.33,0 -2.45,-0.2 -3.35,-0.59 -0.9,-0.39 -1.61,-0.97 -2.12,-1.76 -0.52,-0.78 -0.78,-1.66 -0.81,-2.65zm21.66 -2.45c0,-2.45 0.66,-4.37 1.98,-5.75 1.32,-1.39 3.02,-2.08 5.1,-2.08 1.37,0 2.59,0.33 3.69,0.98 1.09,0.65 1.93,1.56 2.5,2.72 0.58,1.16 0.86,2.48 0.86,3.96 0,1.5 -0.3,2.84 -0.91,4.02 -0.61,1.18 -1.46,2.08 -2.57,2.68 -1.11,0.61 -2.31,0.91 -3.59,0.91 -1.39,0 -2.63,-0.34 -3.73,-1.01 -1.09,-0.67 -1.93,-1.58 -2.49,-2.75 -0.56,-1.16 -0.85,-2.39 -0.85,-3.68zm2.02 0.03c0,1.78 0.48,3.18 1.43,4.2 0.96,1.02 2.16,1.53 3.6,1.53 1.47,0 2.68,-0.52 3.63,-1.55 0.95,-1.03 1.42,-2.5 1.42,-4.39 0,-1.2 -0.2,-2.25 -0.61,-3.14 -0.41,-0.9 -1,-1.59 -1.78,-2.08 -0.78,-0.49 -1.66,-0.74 -2.63,-0.74 -1.38,0 -2.57,0.47 -3.57,1.42 -1,0.95 -1.5,2.53 -1.5,4.75zm33 1.97l1.96 0.5c-0.41,1.61 -1.14,2.83 -2.21,3.67 -1.06,0.84 -2.36,1.27 -3.9,1.27 -1.59,0 -2.88,-0.32 -3.88,-0.97 -1,-0.65 -1.75,-1.59 -2.27,-2.81 -0.52,-1.23 -0.78,-2.55 -0.78,-3.96 0,-1.54 0.29,-2.88 0.88,-4.02 0.59,-1.15 1.42,-2.02 2.51,-2.61 1.08,-0.6 2.28,-0.89 3.58,-0.89 1.48,0 2.72,0.37 3.73,1.13 1.01,0.75 1.71,1.81 2.1,3.17l-1.92 0.45c-0.34,-1.07 -0.84,-1.86 -1.49,-2.35 -0.65,-0.49 -1.47,-0.73 -2.46,-0.73 -1.13,0 -2.08,0.27 -2.84,0.82 -0.76,0.54 -1.3,1.27 -1.6,2.19 -0.31,0.92 -0.47,1.86 -0.47,2.84 0,1.26 0.18,2.35 0.55,3.29 0.36,0.94 0.93,1.64 1.7,2.1 0.77,0.46 1.6,0.69 2.5,0.69 1.09,0 2.02,-0.32 2.77,-0.95 0.76,-0.63 1.27,-1.57 1.54,-2.81zm12.56 5.18l0 -14.77 1.96 0 0 14.77 -1.96 0zm13.3 0l0 -14.77 10.67 0 0 1.73 -8.71 0 0 4.54 8.15 0 0 1.73 -8.15 0 0 5.03 9.06 0 0 1.73 -11.02 0zm25.33 0l0 -13.04 -4.87 0 0 -1.73 11.7 0 0 1.73 -4.87 0 0 13.04 -1.96 0zm13.55 0l5.67 -14.77 2.15 0 6.02 14.77 -2.23 0 -1.71 -4.48 -6.22 0 -1.6 4.48 -2.08 0zm4.25 -6.07l5.04 0 -1.54 -4.1c-0.47,-1.24 -0.81,-2.27 -1.06,-3.08 -0.21,0.96 -0.47,1.91 -0.81,2.85l-1.62 4.34zm21.21 6.07l0 -13.04 -4.87 0 0 -1.73 11.7 0 0 1.73 -4.87 0 0 13.04 -1.96 0zm16.74 0l0 -14.77 10.67 0 0 1.73 -8.71 0 0 4.54 8.15 0 0 1.73 -8.15 0 0 5.03 9.06 0 0 1.73 -11.02 0zm43.89 -5.18l1.96 0.5c-0.41,1.61 -1.15,2.83 -2.21,3.67 -1.06,0.84 -2.36,1.27 -3.9,1.27 -1.59,0 -2.88,-0.32 -3.88,-0.97 -1,-0.65 -1.76,-1.59 -2.27,-2.81 -0.52,-1.23 -0.78,-2.55 -0.78,-3.96 0,-1.54 0.29,-2.88 0.88,-4.02 0.59,-1.15 1.42,-2.02 2.51,-2.61 1.08,-0.6 2.28,-0.89 3.58,-0.89 1.48,0 2.72,0.37 3.73,1.13 1,0.75 1.71,1.81 2.1,3.17l-1.92 0.45c-0.34,-1.07 -0.84,-1.86 -1.49,-2.35 -0.65,-0.49 -1.47,-0.73 -2.45,-0.73 -1.13,0 -2.08,0.27 -2.84,0.82 -0.76,0.54 -1.3,1.27 -1.6,2.19 -0.31,0.92 -0.47,1.86 -0.47,2.84 0,1.26 0.18,2.35 0.55,3.29 0.36,0.94 0.93,1.64 1.7,2.1 0.77,0.46 1.6,0.69 2.5,0.69 1.09,0 2.02,-0.32 2.77,-0.95 0.76,-0.63 1.27,-1.57 1.54,-2.81zm21.91 -9.59l1.96 0 0 8.53c0,1.49 -0.17,2.67 -0.5,3.54 -0.34,0.87 -0.95,1.58 -1.81,2.13 -0.88,0.55 -2.02,0.82 -3.45,0.82 -1.38,0 -2.51,-0.24 -3.39,-0.72 -0.88,-0.48 -1.51,-1.17 -1.88,-2.07 -0.38,-0.9 -0.57,-2.14 -0.57,-3.7l0 -8.53 1.96 0 0 8.53c0,1.28 0.12,2.23 0.36,2.84 0.24,0.61 0.64,1.08 1.22,1.41 0.58,0.33 1.29,0.49 2.12,0.49 1.43,0 2.45,-0.33 3.06,-0.98 0.61,-0.65 0.91,-1.91 0.91,-3.76l0 -8.53zm24.91 14.77l0 -14.77 6.55 0c1.32,0 2.32,0.13 3,0.4 0.68,0.27 1.23,0.73 1.64,1.4 0.41,0.67 0.61,1.41 0.61,2.23 0,1.05 -0.34,1.93 -1.02,2.65 -0.68,0.72 -1.73,1.17 -3.14,1.37 0.52,0.25 0.91,0.5 1.18,0.74 0.57,0.52 1.11,1.18 1.62,1.97l2.55 4.02 -2.44 0 -1.95 -3.08c-0.57,-0.89 -1.04,-1.57 -1.41,-2.04 -0.37,-0.47 -0.7,-0.8 -0.99,-0.99 -0.29,-0.19 -0.59,-0.32 -0.89,-0.39 -0.22,-0.05 -0.58,-0.07 -1.09,-0.07l-2.26 0 0 6.56 -1.96 0zm1.96 -8.25l4.2 0c0.89,0 1.59,-0.09 2.09,-0.28 0.5,-0.18 0.88,-0.48 1.14,-0.89 0.26,-0.4 0.39,-0.84 0.39,-1.32 0,-0.7 -0.25,-1.27 -0.76,-1.72 -0.51,-0.45 -1.3,-0.67 -2.39,-0.67l-4.67 0 0 4.89zm19.13 8.25l5.67 -14.77 2.15 0 6.02 14.77 -2.23 0 -1.71 -4.48 -6.22 0 -1.6 4.48 -2.07 0zm4.25 -6.07l5.04 0 -1.54 -4.1c-0.46,-1.24 -0.82,-2.27 -1.06,-3.08 -0.2,0.96 -0.47,1.91 -0.82,2.85l-1.62 4.34zm18.35 1.32l1.83 -0.17c0.09,0.74 0.29,1.35 0.61,1.83 0.32,0.47 0.82,0.86 1.49,1.15 0.67,0.29 1.43,0.44 2.27,0.44 0.74,0 1.4,-0.11 1.97,-0.34 0.57,-0.22 0.99,-0.53 1.27,-0.92 0.27,-0.39 0.42,-0.81 0.42,-1.27 0,-0.46 -0.14,-0.86 -0.4,-1.21 -0.27,-0.34 -0.71,-0.63 -1.33,-0.87 -0.39,-0.15 -1.27,-0.39 -2.63,-0.72 -1.36,-0.33 -2.31,-0.63 -2.85,-0.92 -0.71,-0.37 -1.23,-0.83 -1.57,-1.38 -0.35,-0.55 -0.52,-1.16 -0.52,-1.84 0,-0.75 0.21,-1.45 0.64,-2.09 0.42,-0.65 1.04,-1.14 1.85,-1.48 0.81,-0.34 1.72,-0.5 2.71,-0.5 1.09,0 2.06,0.18 2.9,0.53 0.83,0.35 1.48,0.87 1.93,1.56 0.45,0.68 0.69,1.46 0.72,2.33l-1.87 0.14c-0.1,-0.93 -0.44,-1.64 -1.02,-2.11 -0.58,-0.48 -1.44,-0.71 -2.58,-0.71 -1.18,0 -2.05,0.22 -2.59,0.65 -0.54,0.43 -0.81,0.95 -0.81,1.57 0,0.53 0.19,0.97 0.57,1.31 0.38,0.34 1.36,0.69 2.95,1.05 1.59,0.36 2.68,0.67 3.27,0.94 0.86,0.39 1.49,0.89 1.9,1.5 0.41,0.61 0.61,1.3 0.61,2.1 0,0.79 -0.23,1.52 -0.67,2.22 -0.45,0.69 -1.1,1.23 -1.94,1.62 -0.84,0.38 -1.78,0.58 -2.84,0.58 -1.34,0 -2.45,-0.2 -3.36,-0.59 -0.91,-0.39 -1.61,-0.97 -2.12,-1.76 -0.51,-0.78 -0.78,-1.66 -0.81,-2.65zm22.26 4.75l0 -14.77 5.58 0c0.98,0 1.73,0.05 2.25,0.14 0.73,0.12 1.33,0.35 1.83,0.69 0.49,0.34 0.88,0.82 1.18,1.42 0.3,0.61 0.45,1.28 0.45,2.01 0,1.25 -0.4,2.31 -1.2,3.18 -0.8,0.87 -2.24,1.3 -4.33,1.3l-3.79 0 0 6.02 -1.96 0zm1.96 -7.76l3.82 0c1.27,0 2.16,-0.24 2.69,-0.71 0.53,-0.47 0.79,-1.13 0.79,-1.99 0,-0.62 -0.15,-1.15 -0.47,-1.59 -0.31,-0.44 -0.72,-0.73 -1.23,-0.87 -0.33,-0.09 -0.94,-0.13 -1.83,-0.13l-3.78 0 0 5.28zm29.33 -7.02l1.96 0 0 8.53c0,1.49 -0.17,2.67 -0.5,3.54 -0.34,0.87 -0.94,1.58 -1.81,2.13 -0.88,0.55 -2.03,0.82 -3.45,0.82 -1.38,0 -2.51,-0.24 -3.39,-0.72 -0.88,-0.48 -1.5,-1.17 -1.88,-2.07 -0.37,-0.9 -0.56,-2.14 -0.56,-3.7l0 -8.53 1.96 0 0 8.53c0,1.28 0.12,2.23 0.36,2.84 0.24,0.61 0.64,1.08 1.22,1.41 0.58,0.33 1.29,0.49 2.12,0.49 1.43,0 2.45,-0.33 3.06,-0.98 0.61,-0.65 0.91,-1.91 0.91,-3.76l0 -8.53zm13.05 14.77l0 -14.77 2.01 0 7.75 11.6 0 -11.6 1.88 0 0 14.77 -2.01 0 -7.75 -11.6 0 11.6 -1.88 0zm22.77 0l0 -14.77 5.09 0c1.15,0 2.03,0.07 2.63,0.21 0.84,0.2 1.57,0.55 2.16,1.06 0.78,0.66 1.36,1.5 1.75,2.52 0.38,1.03 0.58,2.2 0.58,3.52 0,1.12 -0.13,2.11 -0.39,2.98 -0.26,0.87 -0.6,1.58 -1.01,2.15 -0.41,0.57 -0.86,1.02 -1.35,1.34 -0.48,0.33 -1.07,0.58 -1.76,0.74 -0.69,0.17 -1.48,0.25 -2.37,0.25l-5.33 0zm1.96 -1.73l3.15 0c0.97,0 1.74,-0.09 2.29,-0.27 0.55,-0.18 0.99,-0.44 1.33,-0.77 0.46,-0.46 0.82,-1.09 1.08,-1.87 0.25,-0.79 0.39,-1.73 0.39,-2.85 0,-1.55 -0.25,-2.74 -0.76,-3.57 -0.51,-0.83 -1.12,-1.39 -1.85,-1.67 -0.52,-0.2 -1.36,-0.3 -2.53,-0.3l-3.1 0 0 11.31zm20.84 1.73l0 -14.77 10.67 0 0 1.73 -8.71 0 0 4.54 8.15 0 0 1.73 -8.15 0 0 5.03 9.06 0 0 1.73 -11.02 0zm21.62 0l0 -14.77 6.55 0c1.32,0 2.32,0.13 3,0.4 0.69,0.27 1.23,0.73 1.64,1.4 0.41,0.67 0.61,1.41 0.61,2.23 0,1.05 -0.34,1.93 -1.02,2.65 -0.68,0.72 -1.73,1.17 -3.14,1.37 0.52,0.25 0.91,0.5 1.18,0.74 0.57,0.52 1.11,1.18 1.62,1.97l2.55 4.02 -2.44 0 -1.95 -3.08c-0.57,-0.89 -1.04,-1.57 -1.41,-2.04 -0.37,-0.47 -0.7,-0.8 -0.99,-0.99 -0.29,-0.19 -0.59,-0.32 -0.89,-0.39 -0.22,-0.05 -0.58,-0.07 -1.09,-0.07l-2.26 0 0 6.56 -1.96 0zm1.96 -8.25l4.19 0c0.89,0 1.59,-0.09 2.09,-0.28 0.5,-0.18 0.88,-0.48 1.14,-0.89 0.26,-0.4 0.39,-0.84 0.39,-1.32 0,-0.7 -0.25,-1.27 -0.76,-1.72 -0.51,-0.45 -1.3,-0.67 -2.39,-0.67l-4.67 0 0 4.89zm20.79 8.25l0 -14.77 10.67 0 0 1.73 -8.71 0 0 4.54 8.15 0 0 1.73 -8.15 0 0 5.03 9.06 0 0 1.73 -11.02 0zm33.29 0l0 -14.77 1.96 0 0 13.04 7.26 0 0 1.73 -9.23 0zm19.74 0l0 -14.77 1.96 0 0 14.77 -1.96 0zm13.21 0l0 -14.77 2.93 0 3.5 10.46c0.32,0.97 0.56,1.7 0.71,2.19 0.17,-0.54 0.43,-1.33 0.79,-2.37l3.55 -10.28 2.62 0 0 14.77 -1.88 0 0 -12.36 -4.31 12.36 -1.76 0 -4.27 -12.59 0 12.59 -1.88 0zm25.41 0l0 -14.77 1.96 0 0 14.77 -1.96 0zm17.01 0l0 -13.04 -4.87 0 0 -1.73 11.7 0 0 1.73 -4.87 0 0 13.04 -1.96 0zm13.55 0l5.67 -14.77 2.15 0 6.02 14.77 -2.22 0 -1.71 -4.48 -6.23 0 -1.6 4.48 -2.08 0zm4.25 -6.07l5.04 0 -1.54 -4.1c-0.46,-1.24 -0.81,-2.27 -1.06,-3.08 -0.2,0.96 -0.47,1.91 -0.82,2.85l-1.62 4.34zm21.21 6.07l0 -13.04 -4.87 0 0 -1.73 11.7 0 0 1.73 -4.87 0 0 13.04 -1.96 0zm13.55 0l5.67 -14.77 2.15 0 6.02 14.77 -2.23 0 -1.71 -4.48 -6.22 0 -1.6 4.48 -2.07 0zm4.25 -6.07l5.04 0 -1.54 -4.1c-0.46,-1.24 -0.81,-2.27 -1.06,-3.08 -0.2,0.96 -0.47,1.91 -0.81,2.85l-1.62 4.34z"/>
  </g>
 </g>
</svg>
